<svg width="188" height="190" viewBox="0 0 188 190" fill="none" xmlns="http://www.w3.org/2000/svg">
<path opacity="0.5" d="M129.802 5.76651C148.18 13.1775 162.902 27.322 173.165 44.2732C183.375 61.1377 188.311 80.6081 187.021 100.28C185.72 120.124 178.463 139.082 165.935 154.527C153.183 170.25 136.24 182.648 116.516 187.207C96.9105 191.739 76.585 187.487 58.1409 179.442C39.9917 171.526 24.0318 159.184 13.6333 142.334C3.22184 125.463 -1.42796 105.59 0.382459 85.8478C2.17479 66.3028 10.7306 48.1151 23.63 33.3223C36.4162 18.6593 53.3247 8.42735 72.1557 3.53998C91.2357 -1.41202 111.52 -1.60579 129.802 5.76651Z" fill="#2E2E2E" fill-opacity="0.501961"/>
</svg>
