<svg width="59" height="61" viewBox="0 0 59 61" fill="none" xmlns="http://www.w3.org/2000/svg">
<path opacity="0.5" d="M34.3247 0.36444C38.0358 0.820769 41.7687 1.51511 45.0563 3.32758C48.3779 5.15881 51.1501 7.87667 53.4654 10.9168C55.7719 13.9454 57.6817 17.34 58.5657 21.0661C59.4345 24.7285 58.7715 28.5135 58.532 32.2734C58.2918 36.0446 58.6178 39.9577 57.1416 43.4246C55.6575 46.9101 52.8692 49.6192 50.075 52.135C47.3282 54.6081 44.2228 56.5829 40.8646 58.0799C37.4758 59.5906 33.9318 60.8149 30.2363 60.9788C26.5167 61.1439 22.8274 60.329 19.3273 59.0354C15.8292 57.7426 12.3527 56.1011 9.73816 53.4033C7.16359 50.7468 6.08817 47.0323 4.45549 43.69C2.84852 40.4003 0.594514 37.3377 0.111522 33.6962C-0.373118 30.0422 0.826949 26.428 1.69107 22.8475C2.5618 19.2396 3.11216 15.4183 5.24924 12.4078C7.38551 9.39853 10.7852 7.6884 13.8639 5.69998C16.92 3.72619 19.921 1.58198 23.4264 0.667899C26.9773 -0.258065 30.6858 -0.0830173 34.3247 0.36444Z" fill="white" fill-opacity="0.101961"/>
</svg>
