<svg width="421" height="477" viewBox="0 0 421 477" fill="none" xmlns="http://www.w3.org/2000/svg">
<path opacity="0.5" d="M231.656 2.76801C260.611 -2.6412 292.932 -1.26764 317.763 17.3002C342.596 35.8699 348.595 75.5039 366.246 103.411C383.274 130.332 415.939 146.454 420.503 179.734C425.169 213.756 395.591 241.476 389.812 275.254C384.34 307.231 398.342 342.041 387.596 372.055C376.675 402.556 355.46 429.27 329.945 442.464C304.681 455.529 275.389 438.56 248.249 444.113C220.747 449.74 196.314 485.178 169.679 475.258C142.641 465.188 143.808 410.878 118.471 395.776C83.5748 374.978 23.9205 416.327 3.85832 376.427C-15.3611 338.203 43.2444 299.188 47.6513 254.929C51.1011 220.283 28.2997 189.47 25.9365 154.694C22.8142 108.746 -0.354988 44.0887 31.5562 18.0729C67.3335 -11.0948 114.564 50.4886 157.813 47.1806C185.628 45.0532 204.12 7.9121 231.656 2.76801Z" fill="#2E2E2E" fill-opacity="0.501961"/>
</svg>
